<?xml version="1.0" encoding="utf-8"?>
<!-- Generator: Adobe Illustrator 18.1.1, SVG Export Plug-In . SVG Version: 6.00 Build 0)  -->
<svg version="1.1" id="Layer_1" xmlns="http://www.w3.org/2000/svg" xmlns:xlink="http://www.w3.org/1999/xlink" x="0px" y="0px"
	 viewBox="0 0 32 32" enable-background="new 0 0 32 32" xml:space="preserve">
<path fill="#666666" d="M16,31.5c-8.5,0-15.5-7-15.5-15.5S7.5,0.5,16,0.5s15.5,7,15.5,15.5S24.5,31.5,16,31.5z M16,1.5
	C8,1.5,1.5,8,1.5,16S8,30.5,16,30.5S30.5,24,30.5,16S24,1.5,16,1.5z"/>
<g>
	<g>
		<path fill="#666666" d="M15.5,23.5c-1.2,0-2.2-0.4-3-1.1c-0.2-0.2-0.2-0.5,0-0.7s0.5-0.2,0.7,0c0.5,0.5,1.4,0.8,2.3,0.8
			c1.8,0,3.2-1.2,3.2-2.9c0-1.8-1.3-3.1-3.1-3.1c-0.3,0-0.5-0.2-0.5-0.5s0.2-0.5,0.5-0.5c2.3,0,4.1,1.8,4.1,4.1
			C19.7,21.8,17.9,23.5,15.5,23.5z"/>
	</g>
	<path fill="#666666" d="M15.5,25.5c-0.3,0-0.5-0.2-0.5-0.5v-2c0-0.3,0.2-0.5,0.5-0.5S16,22.7,16,23v2C16,25.3,15.8,25.5,15.5,25.5z
		"/>
	<g>
		<path fill="#666666" d="M15.6,16.5c-2.3,0-4.1-1.8-4.1-4.1c0-2.3,1.7-3.9,4-3.9c1.3,0,2.4,0.4,3.1,1.1c0.2,0.2,0.2,0.5,0,0.7
			c-0.2,0.2-0.5,0.2-0.7,0c-0.5-0.5-1.4-0.8-2.4-0.8c-1.8,0-3,1.2-3,2.9c0,1.8,1.3,3.1,3.1,3.1c0.3,0,0.5,0.2,0.5,0.5
			S15.9,16.5,15.6,16.5z"/>
	</g>
	<path fill="#666666" d="M15.5,9.5C15.2,9.5,15,9.3,15,9V6c0-0.3,0.2-0.5,0.5-0.5S16,5.7,16,6v3C16,9.3,15.8,9.5,15.5,9.5z"/>
</g>
</svg>
