<?xml version="1.0" standalone="no"?>
<!DOCTYPE svg PUBLIC "-//W3C//DTD SVG 20010904//EN"
 "http://www.w3.org/TR/2001/REC-SVG-20010904/DTD/svg10.dtd">
<svg version="1.0" xmlns="http://www.w3.org/2000/svg"
 width="400.000000pt" height="400.000000pt" viewBox="0 0 400.000000 400.000000"
 preserveAspectRatio="xMidYMid meet">
<metadata>
Created by potrace 1.11, written by Peter Selinger 2001-2013
</metadata>
<g transform="translate(0.000000,400.000000) scale(0.100000,-0.100000)"
fill="#000000" stroke="none">
<path d="M10 1995 l0 -1995 1995 0 1995 0 0 1995 0 1995 -1995 0 -1995 0 0
-1995z m3930 5 l0 -1940 -1937 0 -1938 0 3 1935 2 1935 1933 3 c1062 1 1933 3
1935 5 1 1 2 -871 2 -1938z"/>
<path d="M1584 1375 c8 -32 -62 -275 -81 -282 -7 -3 -13 -11 -13 -19 0 -10 14
-14 50 -14 38 0 50 4 50 15 0 8 -7 15 -15 15 -17 0 -19 18 -5 54 9 24 15 26
65 26 54 0 56 -1 71 -35 18 -43 17 -45 -1 -45 -8 0 -15 -7 -15 -15 0 -11 12
-15 45 -15 46 0 57 13 32 34 -21 17 -93 269 -78 274 6 2 11 10 11 18 0 11 -15
14 -61 14 -60 0 -61 0 -55 -25z m78 -93 c25 -81 25 -82 -27 -82 -25 0 -45 3
-45 6 0 19 43 144 48 139 3 -3 14 -31 24 -63z"/>
<path d="M1830 1341 c0 -12 7 -21 15 -21 12 0 15 -19 15 -115 0 -96 -3 -115
-15 -115 -8 0 -15 -7 -15 -15 0 -12 13 -15 55 -15 42 0 55 3 55 15 0 8 -9 15
-20 15 -19 0 -20 7 -20 105 0 58 2 105 4 105 2 0 23 -47 47 -105 56 -136 67
-137 120 -10 21 50 40 95 43 100 2 6 5 -36 5 -92 1 -85 -2 -103 -14 -103 -8 0
-15 -7 -15 -15 0 -12 13 -15 55 -15 42 0 55 3 55 15 0 8 -9 15 -20 15 -19 0
-20 7 -20 115 0 108 1 115 20 115 13 0 20 7 20 20 0 17 -7 20 -48 20 l-49 0
-43 -110 c-24 -60 -46 -107 -49 -104 -3 3 -24 51 -46 107 l-41 102 -47 3 c-42
3 -47 1 -47 -17z"/>
<path d="M2250 1340 c0 -11 6 -20 13 -20 18 0 97 -164 97 -200 0 -23 -4 -30
-20 -30 -11 0 -20 -7 -20 -15 0 -12 13 -15 60 -15 47 0 60 3 60 15 0 8 -9 15
-20 15 -16 0 -20 7 -20 31 0 42 74 199 94 199 9 0 16 9 16 20 0 17 -7 20 -50
20 -43 0 -50 -3 -50 -20 0 -11 6 -20 14 -20 11 0 9 -14 -11 -60 -15 -33 -30
-60 -34 -60 -13 0 -61 114 -50 118 6 2 11 12 11 23 0 16 -7 19 -45 19 -38 0
-45 -3 -45 -20z"/>
</g>
</svg>
